<mxfile host="app.diagrams.net" modified="2022-05-09T08:43:34.751Z" agent="5.0 (Windows NT 10.0; Win64; x64) AppleWebKit/537.36 (KHTML, like Gecko) Chrome/100.0.4896.127 Safari/537.36" etag="UGAH5lsj-aVCD6DTfibb" version="17.4.6" type="github">
  <diagram id="3ahqWW-LntTtcB9mee3_" name="Page-1">
    <mxGraphModel dx="1662" dy="762" grid="1" gridSize="10" guides="1" tooltips="1" connect="1" arrows="1" fold="1" page="1" pageScale="1" pageWidth="1169" pageHeight="827" math="0" shadow="0">
      <root>
        <mxCell id="0" />
        <mxCell id="1" parent="0" />
        <mxCell id="eOsLIqNuxfIvkPiwRa_p-39" style="edgeStyle=orthogonalEdgeStyle;rounded=0;orthogonalLoop=1;jettySize=auto;html=1;exitX=0.5;exitY=1;exitDx=0;exitDy=0;entryX=0.75;entryY=0;entryDx=0;entryDy=0;fontSize=10;" parent="1" source="eOsLIqNuxfIvkPiwRa_p-28" target="eOsLIqNuxfIvkPiwRa_p-3" edge="1">
          <mxGeometry relative="1" as="geometry" />
        </mxCell>
        <mxCell id="eOsLIqNuxfIvkPiwRa_p-3" value="&lt;u&gt;Username&lt;/u&gt;" style="whiteSpace=wrap;html=1;align=center;" parent="1" vertex="1">
          <mxGeometry x="600" y="254" width="100" height="40" as="geometry" />
        </mxCell>
        <mxCell id="eOsLIqNuxfIvkPiwRa_p-4" value="UTENTE" style="text;html=1;strokeColor=none;fillColor=none;align=center;verticalAlign=middle;whiteSpace=wrap;rounded=0;" parent="1" vertex="1">
          <mxGeometry x="600" y="224" width="60" height="30" as="geometry" />
        </mxCell>
        <mxCell id="eOsLIqNuxfIvkPiwRa_p-5" value="Nome" style="whiteSpace=wrap;html=1;align=center;" parent="1" vertex="1">
          <mxGeometry x="700" y="254" width="100" height="40" as="geometry" />
        </mxCell>
        <mxCell id="eOsLIqNuxfIvkPiwRa_p-6" value="Cognome" style="whiteSpace=wrap;html=1;align=center;" parent="1" vertex="1">
          <mxGeometry x="800" y="254" width="100" height="40" as="geometry" />
        </mxCell>
        <mxCell id="eOsLIqNuxfIvkPiwRa_p-7" value="Email" style="whiteSpace=wrap;html=1;align=center;" parent="1" vertex="1">
          <mxGeometry x="900" y="254" width="100" height="40" as="geometry" />
        </mxCell>
        <mxCell id="eOsLIqNuxfIvkPiwRa_p-8" value="Password" style="whiteSpace=wrap;html=1;align=center;" parent="1" vertex="1">
          <mxGeometry x="1000" y="254" width="100" height="40" as="geometry" />
        </mxCell>
        <mxCell id="eOsLIqNuxfIvkPiwRa_p-9" value="NumTelefono" style="whiteSpace=wrap;html=1;align=center;" parent="1" vertex="1">
          <mxGeometry x="1100" y="254" width="100" height="40" as="geometry" />
        </mxCell>
        <mxCell id="eOsLIqNuxfIvkPiwRa_p-10" value="PaeseResidenza" style="whiteSpace=wrap;html=1;align=center;" parent="1" vertex="1">
          <mxGeometry x="1200" y="254" width="100" height="40" as="geometry" />
        </mxCell>
        <mxCell id="eOsLIqNuxfIvkPiwRa_p-11" value="DataNascita" style="whiteSpace=wrap;html=1;align=center;" parent="1" vertex="1">
          <mxGeometry x="1300" y="254" width="100" height="40" as="geometry" />
        </mxCell>
        <mxCell id="eOsLIqNuxfIvkPiwRa_p-12" value="Admin" style="whiteSpace=wrap;html=1;align=center;" parent="1" vertex="1">
          <mxGeometry x="1400" y="254" width="100" height="40" as="geometry" />
        </mxCell>
        <mxCell id="eOsLIqNuxfIvkPiwRa_p-13" value="INDIRIZZO" style="text;html=1;strokeColor=none;fillColor=none;align=center;verticalAlign=middle;whiteSpace=wrap;rounded=0;" parent="1" vertex="1">
          <mxGeometry x="600" y="130" width="80" height="30" as="geometry" />
        </mxCell>
        <mxCell id="eOsLIqNuxfIvkPiwRa_p-73" style="edgeStyle=orthogonalEdgeStyle;rounded=0;orthogonalLoop=1;jettySize=auto;html=1;entryX=0;entryY=0.25;entryDx=0;entryDy=0;fontSize=11;" parent="1" source="eOsLIqNuxfIvkPiwRa_p-14" target="eOsLIqNuxfIvkPiwRa_p-3" edge="1">
          <mxGeometry relative="1" as="geometry">
            <Array as="points">
              <mxPoint x="580" y="180" />
              <mxPoint x="580" y="264" />
            </Array>
          </mxGeometry>
        </mxCell>
        <mxCell id="eOsLIqNuxfIvkPiwRa_p-14" value="&lt;u&gt;Utente&lt;/u&gt;" style="whiteSpace=wrap;html=1;align=center;" parent="1" vertex="1">
          <mxGeometry x="600" y="160" width="100" height="40" as="geometry" />
        </mxCell>
        <mxCell id="eOsLIqNuxfIvkPiwRa_p-15" value="&lt;u&gt;Via&lt;/u&gt;" style="whiteSpace=wrap;html=1;align=center;" parent="1" vertex="1">
          <mxGeometry x="700" y="160" width="100" height="40" as="geometry" />
        </mxCell>
        <mxCell id="eOsLIqNuxfIvkPiwRa_p-16" value="&lt;u&gt;CAP&lt;/u&gt;" style="whiteSpace=wrap;html=1;align=center;" parent="1" vertex="1">
          <mxGeometry x="900" y="160" width="100" height="40" as="geometry" />
        </mxCell>
        <mxCell id="eOsLIqNuxfIvkPiwRa_p-19" value="&lt;u&gt;NumCivico&lt;/u&gt;" style="whiteSpace=wrap;html=1;align=center;" parent="1" vertex="1">
          <mxGeometry x="800" y="160" width="100" height="40" as="geometry" />
        </mxCell>
        <mxCell id="eOsLIqNuxfIvkPiwRa_p-20" value="INDIRIZZO SPEDIZIONE" style="text;html=1;strokeColor=none;fillColor=none;align=center;verticalAlign=middle;whiteSpace=wrap;rounded=0;" parent="1" vertex="1">
          <mxGeometry x="600" y="30" width="90" height="40" as="geometry" />
        </mxCell>
        <mxCell id="eOsLIqNuxfIvkPiwRa_p-41" style="edgeStyle=orthogonalEdgeStyle;rounded=0;orthogonalLoop=1;jettySize=auto;html=1;exitX=0.5;exitY=0;exitDx=0;exitDy=0;entryX=0.5;entryY=1;entryDx=0;entryDy=0;fontSize=10;" parent="1" source="eOsLIqNuxfIvkPiwRa_p-15" target="eOsLIqNuxfIvkPiwRa_p-22" edge="1">
          <mxGeometry relative="1" as="geometry" />
        </mxCell>
        <mxCell id="eOsLIqNuxfIvkPiwRa_p-22" value="&lt;u&gt;Via&lt;/u&gt;" style="whiteSpace=wrap;html=1;align=center;" parent="1" vertex="1">
          <mxGeometry x="600" y="70" width="100" height="40" as="geometry" />
        </mxCell>
        <mxCell id="eOsLIqNuxfIvkPiwRa_p-43" style="edgeStyle=orthogonalEdgeStyle;rounded=0;orthogonalLoop=1;jettySize=auto;html=1;exitX=0.5;exitY=0;exitDx=0;exitDy=0;entryX=0.5;entryY=1;entryDx=0;entryDy=0;fontSize=10;" parent="1" source="eOsLIqNuxfIvkPiwRa_p-16" target="eOsLIqNuxfIvkPiwRa_p-23" edge="1">
          <mxGeometry relative="1" as="geometry">
            <Array as="points">
              <mxPoint x="950" y="120" />
              <mxPoint x="850" y="120" />
            </Array>
          </mxGeometry>
        </mxCell>
        <mxCell id="eOsLIqNuxfIvkPiwRa_p-23" value="&lt;u&gt;CAP&lt;/u&gt;" style="whiteSpace=wrap;html=1;align=center;" parent="1" vertex="1">
          <mxGeometry x="800" y="70" width="100" height="40" as="geometry" />
        </mxCell>
        <mxCell id="eOsLIqNuxfIvkPiwRa_p-42" style="edgeStyle=orthogonalEdgeStyle;rounded=0;orthogonalLoop=1;jettySize=auto;html=1;exitX=0.5;exitY=0;exitDx=0;exitDy=0;entryX=0.5;entryY=1;entryDx=0;entryDy=0;fontSize=10;" parent="1" source="eOsLIqNuxfIvkPiwRa_p-19" target="eOsLIqNuxfIvkPiwRa_p-24" edge="1">
          <mxGeometry relative="1" as="geometry">
            <Array as="points">
              <mxPoint x="850" y="130" />
              <mxPoint x="750" y="130" />
            </Array>
          </mxGeometry>
        </mxCell>
        <mxCell id="eOsLIqNuxfIvkPiwRa_p-24" value="&lt;u&gt;NumCivico&lt;/u&gt;" style="whiteSpace=wrap;html=1;align=center;" parent="1" vertex="1">
          <mxGeometry x="700" y="70" width="100" height="40" as="geometry" />
        </mxCell>
        <mxCell id="eOsLIqNuxfIvkPiwRa_p-25" value="Provincia" style="whiteSpace=wrap;html=1;align=center;" parent="1" vertex="1">
          <mxGeometry x="900" y="70" width="100" height="40" as="geometry" />
        </mxCell>
        <mxCell id="eOsLIqNuxfIvkPiwRa_p-26" value="CittÃ " style="whiteSpace=wrap;html=1;align=center;" parent="1" vertex="1">
          <mxGeometry x="1000" y="70" width="100" height="40" as="geometry" />
        </mxCell>
        <mxCell id="eOsLIqNuxfIvkPiwRa_p-27" value="FATTURAZIONE" style="text;html=1;strokeColor=none;fillColor=none;align=center;verticalAlign=middle;whiteSpace=wrap;rounded=0;" parent="1" vertex="1">
          <mxGeometry x="1140" y="130" width="100" height="30" as="geometry" />
        </mxCell>
        <mxCell id="eOsLIqNuxfIvkPiwRa_p-28" value="&lt;u&gt;Utente&lt;/u&gt;" style="whiteSpace=wrap;html=1;align=center;" parent="1" vertex="1">
          <mxGeometry x="1140" y="160" width="100" height="40" as="geometry" />
        </mxCell>
        <mxCell id="eOsLIqNuxfIvkPiwRa_p-29" value="&lt;u&gt;NumCarta&lt;/u&gt;" style="whiteSpace=wrap;html=1;align=center;" parent="1" vertex="1">
          <mxGeometry x="1240" y="160" width="100" height="40" as="geometry" />
        </mxCell>
        <mxCell id="eOsLIqNuxfIvkPiwRa_p-30" value="METODO PAGAMENTO" style="text;html=1;strokeColor=none;fillColor=none;align=center;verticalAlign=middle;whiteSpace=wrap;rounded=0;" parent="1" vertex="1">
          <mxGeometry x="1140" y="30" width="100" height="40" as="geometry" />
        </mxCell>
        <mxCell id="eOsLIqNuxfIvkPiwRa_p-44" style="edgeStyle=orthogonalEdgeStyle;rounded=0;orthogonalLoop=1;jettySize=auto;html=1;exitX=0.5;exitY=0;exitDx=0;exitDy=0;entryX=0.5;entryY=1;entryDx=0;entryDy=0;fontSize=10;" parent="1" source="eOsLIqNuxfIvkPiwRa_p-29" target="eOsLIqNuxfIvkPiwRa_p-32" edge="1">
          <mxGeometry relative="1" as="geometry">
            <Array as="points">
              <mxPoint x="1290" y="130" />
              <mxPoint x="1190" y="130" />
            </Array>
          </mxGeometry>
        </mxCell>
        <mxCell id="eOsLIqNuxfIvkPiwRa_p-32" value="&lt;u&gt;NumCarta&lt;/u&gt;" style="whiteSpace=wrap;html=1;align=center;" parent="1" vertex="1">
          <mxGeometry x="1140" y="70" width="100" height="40" as="geometry" />
        </mxCell>
        <mxCell id="eOsLIqNuxfIvkPiwRa_p-33" value="Titolare" style="whiteSpace=wrap;html=1;align=center;" parent="1" vertex="1">
          <mxGeometry x="1440" y="70" width="100" height="40" as="geometry" />
        </mxCell>
        <mxCell id="eOsLIqNuxfIvkPiwRa_p-34" value="Tipo" style="whiteSpace=wrap;html=1;align=center;" parent="1" vertex="1">
          <mxGeometry x="1240" y="70" width="100" height="40" as="geometry" />
        </mxCell>
        <mxCell id="eOsLIqNuxfIvkPiwRa_p-35" value="Scadenza" style="whiteSpace=wrap;html=1;align=center;" parent="1" vertex="1">
          <mxGeometry x="1340" y="70" width="100" height="40" as="geometry" />
        </mxCell>
        <mxCell id="eOsLIqNuxfIvkPiwRa_p-36" value="&lt;font style=&quot;font-size: 10px&quot;&gt;IndirizzoFatturazione&lt;/font&gt;" style="whiteSpace=wrap;html=1;align=center;" parent="1" vertex="1">
          <mxGeometry x="1540" y="70" width="100" height="40" as="geometry" />
        </mxCell>
        <mxCell id="eOsLIqNuxfIvkPiwRa_p-38" value="Predefinito" style="whiteSpace=wrap;html=1;align=center;" parent="1" vertex="1">
          <mxGeometry x="1640" y="70" width="100" height="40" as="geometry" />
        </mxCell>
        <mxCell id="eOsLIqNuxfIvkPiwRa_p-46" value="ORDINE" style="text;html=1;strokeColor=none;fillColor=none;align=center;verticalAlign=middle;whiteSpace=wrap;rounded=0;" parent="1" vertex="1">
          <mxGeometry x="1140" y="340" width="80" height="30" as="geometry" />
        </mxCell>
        <mxCell id="eOsLIqNuxfIvkPiwRa_p-47" value="&lt;u&gt;NumOrdine&lt;/u&gt;" style="whiteSpace=wrap;html=1;align=center;" parent="1" vertex="1">
          <mxGeometry x="1140" y="370" width="100" height="40" as="geometry" />
        </mxCell>
        <mxCell id="eOsLIqNuxfIvkPiwRa_p-50" style="edgeStyle=orthogonalEdgeStyle;rounded=0;orthogonalLoop=1;jettySize=auto;html=1;entryX=0.75;entryY=1;entryDx=0;entryDy=0;fontSize=10;" parent="1" source="eOsLIqNuxfIvkPiwRa_p-49" target="eOsLIqNuxfIvkPiwRa_p-3" edge="1">
          <mxGeometry relative="1" as="geometry">
            <Array as="points">
              <mxPoint x="1290" y="320" />
              <mxPoint x="675" y="320" />
            </Array>
          </mxGeometry>
        </mxCell>
        <mxCell id="eOsLIqNuxfIvkPiwRa_p-49" value="Utente" style="whiteSpace=wrap;html=1;align=center;" parent="1" vertex="1">
          <mxGeometry x="1240" y="370" width="100" height="40" as="geometry" />
        </mxCell>
        <mxCell id="eOsLIqNuxfIvkPiwRa_p-51" value="CostoTot" style="whiteSpace=wrap;html=1;align=center;" parent="1" vertex="1">
          <mxGeometry x="1340" y="370" width="100" height="40" as="geometry" />
        </mxCell>
        <mxCell id="eOsLIqNuxfIvkPiwRa_p-52" value="DataOrdine" style="whiteSpace=wrap;html=1;align=center;" parent="1" vertex="1">
          <mxGeometry x="1440" y="370" width="100" height="40" as="geometry" />
        </mxCell>
        <mxCell id="eOsLIqNuxfIvkPiwRa_p-53" value="DataSpedizione*" style="whiteSpace=wrap;html=1;align=center;" parent="1" vertex="1">
          <mxGeometry x="1540" y="370" width="100" height="40" as="geometry" />
        </mxCell>
        <mxCell id="eOsLIqNuxfIvkPiwRa_p-54" value="&lt;font style=&quot;font-size: 11px&quot;&gt;IndirizzoSpedizione&lt;/font&gt;" style="whiteSpace=wrap;html=1;align=center;" parent="1" vertex="1">
          <mxGeometry x="1640" y="370" width="100" height="40" as="geometry" />
        </mxCell>
        <mxCell id="eOsLIqNuxfIvkPiwRa_p-55" value="&lt;font style=&quot;font-size: 11px&quot;&gt;MetodoPagamento&lt;/font&gt;" style="whiteSpace=wrap;html=1;align=center;" parent="1" vertex="1">
          <mxGeometry x="1740" y="370" width="100" height="40" as="geometry" />
        </mxCell>
        <mxCell id="eOsLIqNuxfIvkPiwRa_p-56" value="CONTENUTO" style="text;html=1;strokeColor=none;fillColor=none;align=center;verticalAlign=middle;whiteSpace=wrap;rounded=0;" parent="1" vertex="1">
          <mxGeometry x="1140" y="440" width="90" height="30" as="geometry" />
        </mxCell>
        <mxCell id="eOsLIqNuxfIvkPiwRa_p-64" style="edgeStyle=orthogonalEdgeStyle;rounded=0;orthogonalLoop=1;jettySize=auto;html=1;entryX=0;entryY=0.5;entryDx=0;entryDy=0;fontSize=11;" parent="1" source="eOsLIqNuxfIvkPiwRa_p-57" target="eOsLIqNuxfIvkPiwRa_p-47" edge="1">
          <mxGeometry relative="1" as="geometry">
            <Array as="points">
              <mxPoint x="1120" y="490" />
              <mxPoint x="1120" y="390" />
            </Array>
          </mxGeometry>
        </mxCell>
        <mxCell id="eOsLIqNuxfIvkPiwRa_p-57" value="&lt;u&gt;NumOrdine&lt;/u&gt;" style="whiteSpace=wrap;html=1;align=center;" parent="1" vertex="1">
          <mxGeometry x="1140" y="470" width="100" height="40" as="geometry" />
        </mxCell>
        <mxCell id="eOsLIqNuxfIvkPiwRa_p-87" style="edgeStyle=orthogonalEdgeStyle;rounded=0;orthogonalLoop=1;jettySize=auto;html=1;entryX=0.75;entryY=0;entryDx=0;entryDy=0;fontSize=12;" parent="1" source="eOsLIqNuxfIvkPiwRa_p-58" target="eOsLIqNuxfIvkPiwRa_p-75" edge="1">
          <mxGeometry relative="1" as="geometry">
            <Array as="points">
              <mxPoint x="1290" y="540" />
              <mxPoint x="675" y="540" />
            </Array>
          </mxGeometry>
        </mxCell>
        <mxCell id="eOsLIqNuxfIvkPiwRa_p-58" value="&lt;u&gt;Articolo&lt;/u&gt;" style="whiteSpace=wrap;html=1;align=center;" parent="1" vertex="1">
          <mxGeometry x="1240" y="470" width="100" height="40" as="geometry" />
        </mxCell>
        <mxCell id="eOsLIqNuxfIvkPiwRa_p-60" value="NomeArticolo" style="whiteSpace=wrap;html=1;align=center;" parent="1" vertex="1">
          <mxGeometry x="1340" y="470" width="100" height="40" as="geometry" />
        </mxCell>
        <mxCell id="eOsLIqNuxfIvkPiwRa_p-61" value="PrezzoAcquisto" style="whiteSpace=wrap;html=1;align=center;" parent="1" vertex="1">
          <mxGeometry x="1440" y="470" width="100" height="40" as="geometry" />
        </mxCell>
        <mxCell id="eOsLIqNuxfIvkPiwRa_p-62" value="QuantitÃ " style="whiteSpace=wrap;html=1;align=center;" parent="1" vertex="1">
          <mxGeometry x="1640" y="470" width="100" height="40" as="geometry" />
        </mxCell>
        <mxCell id="eOsLIqNuxfIvkPiwRa_p-63" value="Iva*" style="whiteSpace=wrap;html=1;align=center;" parent="1" vertex="1">
          <mxGeometry x="1540" y="470" width="100" height="40" as="geometry" />
        </mxCell>
        <mxCell id="eOsLIqNuxfIvkPiwRa_p-65" value="RECENSIONE" style="text;html=1;strokeColor=none;fillColor=none;align=center;verticalAlign=middle;whiteSpace=wrap;rounded=0;" parent="1" vertex="1">
          <mxGeometry x="600" y="440" width="90" height="30" as="geometry" />
        </mxCell>
        <mxCell id="eOsLIqNuxfIvkPiwRa_p-88" style="edgeStyle=orthogonalEdgeStyle;rounded=0;orthogonalLoop=1;jettySize=auto;html=1;exitX=0;exitY=0.25;exitDx=0;exitDy=0;fontSize=12;entryX=0;entryY=0.75;entryDx=0;entryDy=0;" parent="1" source="eOsLIqNuxfIvkPiwRa_p-66" target="eOsLIqNuxfIvkPiwRa_p-3" edge="1">
          <mxGeometry relative="1" as="geometry">
            <mxPoint x="550" y="420" as="targetPoint" />
          </mxGeometry>
        </mxCell>
        <mxCell id="eOsLIqNuxfIvkPiwRa_p-89" style="edgeStyle=orthogonalEdgeStyle;rounded=0;orthogonalLoop=1;jettySize=auto;html=1;exitX=0;exitY=0.75;exitDx=0;exitDy=0;entryX=0;entryY=0.25;entryDx=0;entryDy=0;fontSize=12;" parent="1" source="eOsLIqNuxfIvkPiwRa_p-66" target="eOsLIqNuxfIvkPiwRa_p-75" edge="1">
          <mxGeometry relative="1" as="geometry" />
        </mxCell>
        <mxCell id="eOsLIqNuxfIvkPiwRa_p-66" value="&lt;u&gt;Utente&lt;/u&gt;" style="whiteSpace=wrap;html=1;align=center;" parent="1" vertex="1">
          <mxGeometry x="600" y="470" width="100" height="40" as="geometry" />
        </mxCell>
        <mxCell id="eOsLIqNuxfIvkPiwRa_p-67" value="&lt;u&gt;Articolo&lt;/u&gt;" style="whiteSpace=wrap;html=1;align=center;" parent="1" vertex="1">
          <mxGeometry x="700" y="470" width="100" height="40" as="geometry" />
        </mxCell>
        <mxCell id="eOsLIqNuxfIvkPiwRa_p-68" value="Voto" style="whiteSpace=wrap;html=1;align=center;" parent="1" vertex="1">
          <mxGeometry x="800" y="470" width="100" height="40" as="geometry" />
        </mxCell>
        <mxCell id="eOsLIqNuxfIvkPiwRa_p-69" value="Commento*" style="whiteSpace=wrap;html=1;align=center;" parent="1" vertex="1">
          <mxGeometry x="900" y="470" width="100" height="40" as="geometry" />
        </mxCell>
        <mxCell id="eOsLIqNuxfIvkPiwRa_p-71" value="&lt;font style=&quot;font-size: 11px&quot;&gt;DataPubblicazione&lt;/font&gt;" style="whiteSpace=wrap;html=1;align=center;" parent="1" vertex="1">
          <mxGeometry x="1000" y="470" width="100" height="40" as="geometry" />
        </mxCell>
        <mxCell id="eOsLIqNuxfIvkPiwRa_p-74" value="ARTICOLO" style="text;html=1;strokeColor=none;fillColor=none;align=center;verticalAlign=middle;whiteSpace=wrap;rounded=0;" parent="1" vertex="1">
          <mxGeometry x="600" y="540" width="70" height="30" as="geometry" />
        </mxCell>
        <mxCell id="eOsLIqNuxfIvkPiwRa_p-75" value="&lt;u&gt;ID&lt;/u&gt;" style="whiteSpace=wrap;html=1;align=center;" parent="1" vertex="1">
          <mxGeometry x="600" y="570" width="100" height="40" as="geometry" />
        </mxCell>
        <mxCell id="eOsLIqNuxfIvkPiwRa_p-76" value="Produttore" style="whiteSpace=wrap;html=1;align=center;" parent="1" vertex="1">
          <mxGeometry x="700" y="570" width="100" height="40" as="geometry" />
        </mxCell>
        <mxCell id="eOsLIqNuxfIvkPiwRa_p-77" value="Nome" style="whiteSpace=wrap;html=1;align=center;" parent="1" vertex="1">
          <mxGeometry x="800" y="570" width="100" height="40" as="geometry" />
        </mxCell>
        <mxCell id="eOsLIqNuxfIvkPiwRa_p-78" value="Descrizione*" style="whiteSpace=wrap;html=1;align=center;" parent="1" vertex="1">
          <mxGeometry x="900" y="570" width="100" height="40" as="geometry" />
        </mxCell>
        <mxCell id="eOsLIqNuxfIvkPiwRa_p-79" value="Prezzo" style="whiteSpace=wrap;html=1;align=center;" parent="1" vertex="1">
          <mxGeometry x="1000" y="570" width="100" height="40" as="geometry" />
        </mxCell>
        <mxCell id="eOsLIqNuxfIvkPiwRa_p-80" value="Stock" style="whiteSpace=wrap;html=1;align=center;" parent="1" vertex="1">
          <mxGeometry x="1100" y="570" width="100" height="40" as="geometry" />
        </mxCell>
        <mxCell id="eOsLIqNuxfIvkPiwRa_p-81" value="Peso" style="whiteSpace=wrap;html=1;align=center;" parent="1" vertex="1">
          <mxGeometry x="1200" y="570" width="100" height="40" as="geometry" />
        </mxCell>
        <mxCell id="eOsLIqNuxfIvkPiwRa_p-82" value="Altezza" style="whiteSpace=wrap;html=1;align=center;" parent="1" vertex="1">
          <mxGeometry x="1300" y="570" width="100" height="40" as="geometry" />
        </mxCell>
        <mxCell id="eOsLIqNuxfIvkPiwRa_p-83" value="Larghezza" style="whiteSpace=wrap;html=1;align=center;" parent="1" vertex="1">
          <mxGeometry x="1400" y="570" width="100" height="40" as="geometry" />
        </mxCell>
        <mxCell id="eOsLIqNuxfIvkPiwRa_p-84" value="Lunghezza" style="whiteSpace=wrap;html=1;align=center;" parent="1" vertex="1">
          <mxGeometry x="1500" y="570" width="100" height="40" as="geometry" />
        </mxCell>
        <mxCell id="eOsLIqNuxfIvkPiwRa_p-85" value="Saldo" style="whiteSpace=wrap;html=1;align=center;" parent="1" vertex="1">
          <mxGeometry x="1600" y="570" width="100" height="40" as="geometry" />
        </mxCell>
        <mxCell id="eOsLIqNuxfIvkPiwRa_p-90" value="&lt;u&gt;ID&lt;/u&gt;" style="whiteSpace=wrap;html=1;align=center;" parent="1" vertex="1">
          <mxGeometry x="210" y="570" width="100" height="40" as="geometry" />
        </mxCell>
        <mxCell id="eOsLIqNuxfIvkPiwRa_p-91" value="FOTO" style="text;html=1;strokeColor=none;fillColor=none;align=center;verticalAlign=middle;whiteSpace=wrap;rounded=0;" parent="1" vertex="1">
          <mxGeometry x="210" y="540" width="60" height="30" as="geometry" />
        </mxCell>
        <mxCell id="eOsLIqNuxfIvkPiwRa_p-92" value="Sorgente" style="whiteSpace=wrap;html=1;align=center;" parent="1" vertex="1">
          <mxGeometry x="310" y="570" width="100" height="40" as="geometry" />
        </mxCell>
        <mxCell id="eOsLIqNuxfIvkPiwRa_p-103" style="edgeStyle=orthogonalEdgeStyle;rounded=0;orthogonalLoop=1;jettySize=auto;html=1;exitX=1;exitY=0.5;exitDx=0;exitDy=0;entryX=0;entryY=0.5;entryDx=0;entryDy=0;fontSize=12;" parent="1" source="eOsLIqNuxfIvkPiwRa_p-93" target="eOsLIqNuxfIvkPiwRa_p-75" edge="1">
          <mxGeometry relative="1" as="geometry" />
        </mxCell>
        <mxCell id="eOsLIqNuxfIvkPiwRa_p-93" value="Articolo" style="whiteSpace=wrap;html=1;align=center;" parent="1" vertex="1">
          <mxGeometry x="410" y="570" width="100" height="40" as="geometry" />
        </mxCell>
        <mxCell id="eOsLIqNuxfIvkPiwRa_p-97" value="ACQUARIO" style="text;html=1;strokeColor=none;fillColor=none;align=center;verticalAlign=middle;whiteSpace=wrap;rounded=0;" parent="1" vertex="1">
          <mxGeometry x="290" y="680" width="80" height="30" as="geometry" />
        </mxCell>
        <mxCell id="eOsLIqNuxfIvkPiwRa_p-159" style="edgeStyle=orthogonalEdgeStyle;rounded=0;orthogonalLoop=1;jettySize=auto;html=1;exitX=0.75;exitY=0;exitDx=0;exitDy=0;entryX=0;entryY=1;entryDx=0;entryDy=0;fontSize=12;" parent="1" source="eOsLIqNuxfIvkPiwRa_p-98" target="eOsLIqNuxfIvkPiwRa_p-75" edge="1">
          <mxGeometry relative="1" as="geometry" />
        </mxCell>
        <mxCell id="eOsLIqNuxfIvkPiwRa_p-98" value="&lt;u&gt;Articolo&lt;/u&gt;" style="whiteSpace=wrap;html=1;align=center;" parent="1" vertex="1">
          <mxGeometry x="290" y="710" width="100" height="40" as="geometry" />
        </mxCell>
        <mxCell id="eOsLIqNuxfIvkPiwRa_p-99" value="Materiale" style="whiteSpace=wrap;html=1;align=center;" parent="1" vertex="1">
          <mxGeometry x="490" y="710" width="100" height="40" as="geometry" />
        </mxCell>
        <mxCell id="eOsLIqNuxfIvkPiwRa_p-100" value="Volume" style="whiteSpace=wrap;html=1;align=center;" parent="1" vertex="1">
          <mxGeometry x="390" y="710" width="100" height="40" as="geometry" />
        </mxCell>
        <mxCell id="eOsLIqNuxfIvkPiwRa_p-101" value="Spessore" style="whiteSpace=wrap;html=1;align=center;" parent="1" vertex="1">
          <mxGeometry x="590" y="710" width="100" height="40" as="geometry" />
        </mxCell>
        <mxCell id="eOsLIqNuxfIvkPiwRa_p-102" value="isAllestito" style="whiteSpace=wrap;html=1;align=center;" parent="1" vertex="1">
          <mxGeometry x="690" y="710" width="100" height="40" as="geometry" />
        </mxCell>
        <mxCell id="eOsLIqNuxfIvkPiwRa_p-109" value="DECORAZIONE" style="text;html=1;strokeColor=none;fillColor=none;align=center;verticalAlign=middle;whiteSpace=wrap;rounded=0;" parent="1" vertex="1">
          <mxGeometry x="830" y="680" width="100" height="30" as="geometry" />
        </mxCell>
        <mxCell id="eOsLIqNuxfIvkPiwRa_p-110" value="&lt;u&gt;Tipo&lt;/u&gt;" style="whiteSpace=wrap;html=1;align=center;" parent="1" vertex="1">
          <mxGeometry x="930" y="710" width="100" height="40" as="geometry" />
        </mxCell>
        <mxCell id="eOsLIqNuxfIvkPiwRa_p-115" value="MANGIME" style="text;html=1;strokeColor=none;fillColor=none;align=center;verticalAlign=middle;whiteSpace=wrap;rounded=0;" parent="1" vertex="1">
          <mxGeometry x="1070" y="680" width="80" height="30" as="geometry" />
        </mxCell>
        <mxCell id="eOsLIqNuxfIvkPiwRa_p-137" style="edgeStyle=orthogonalEdgeStyle;rounded=0;orthogonalLoop=1;jettySize=auto;html=1;entryX=0.75;entryY=1;entryDx=0;entryDy=0;fontSize=12;" parent="1" source="eOsLIqNuxfIvkPiwRa_p-116" target="eOsLIqNuxfIvkPiwRa_p-75" edge="1">
          <mxGeometry relative="1" as="geometry">
            <Array as="points">
              <mxPoint x="1050" y="730" />
              <mxPoint x="1050" y="650" />
              <mxPoint x="675" y="650" />
            </Array>
          </mxGeometry>
        </mxCell>
        <mxCell id="eOsLIqNuxfIvkPiwRa_p-116" value="&lt;u&gt;Articolo&lt;/u&gt;" style="whiteSpace=wrap;html=1;align=center;" parent="1" vertex="1">
          <mxGeometry x="1070" y="710" width="100" height="40" as="geometry" />
        </mxCell>
        <mxCell id="eOsLIqNuxfIvkPiwRa_p-120" value="Composizione" style="whiteSpace=wrap;html=1;align=center;" parent="1" vertex="1">
          <mxGeometry x="1170" y="710" width="100" height="40" as="geometry" />
        </mxCell>
        <mxCell id="eOsLIqNuxfIvkPiwRa_p-136" style="edgeStyle=orthogonalEdgeStyle;rounded=0;orthogonalLoop=1;jettySize=auto;html=1;entryX=0.25;entryY=1;entryDx=0;entryDy=0;fontSize=12;" parent="1" source="eOsLIqNuxfIvkPiwRa_p-121" target="eOsLIqNuxfIvkPiwRa_p-75" edge="1">
          <mxGeometry relative="1" as="geometry">
            <Array as="points">
              <mxPoint x="810" y="730" />
              <mxPoint x="810" y="660" />
              <mxPoint x="625" y="660" />
            </Array>
          </mxGeometry>
        </mxCell>
        <mxCell id="eOsLIqNuxfIvkPiwRa_p-121" value="&lt;u&gt;Articolo&lt;/u&gt;" style="whiteSpace=wrap;html=1;align=center;" parent="1" vertex="1">
          <mxGeometry x="830" y="710" width="100" height="40" as="geometry" />
        </mxCell>
        <mxCell id="eOsLIqNuxfIvkPiwRa_p-122" value="MANUTENZIONE" style="text;html=1;strokeColor=none;fillColor=none;align=center;verticalAlign=middle;whiteSpace=wrap;rounded=0;" parent="1" vertex="1">
          <mxGeometry x="1310" y="680" width="110" height="30" as="geometry" />
        </mxCell>
        <mxCell id="eOsLIqNuxfIvkPiwRa_p-138" style="edgeStyle=orthogonalEdgeStyle;rounded=0;orthogonalLoop=1;jettySize=auto;html=1;exitX=0;exitY=0.5;exitDx=0;exitDy=0;entryX=1;entryY=1;entryDx=0;entryDy=0;fontSize=12;" parent="1" source="eOsLIqNuxfIvkPiwRa_p-123" target="eOsLIqNuxfIvkPiwRa_p-75" edge="1">
          <mxGeometry relative="1" as="geometry">
            <Array as="points">
              <mxPoint x="1290" y="730" />
              <mxPoint x="1290" y="640" />
              <mxPoint x="700" y="640" />
            </Array>
          </mxGeometry>
        </mxCell>
        <mxCell id="eOsLIqNuxfIvkPiwRa_p-123" value="&lt;u&gt;Articolo&lt;/u&gt;" style="whiteSpace=wrap;html=1;align=center;" parent="1" vertex="1">
          <mxGeometry x="1310" y="710" width="100" height="40" as="geometry" />
        </mxCell>
        <mxCell id="eOsLIqNuxfIvkPiwRa_p-124" value="Fine" style="whiteSpace=wrap;html=1;align=center;" parent="1" vertex="1">
          <mxGeometry x="1410" y="710" width="100" height="40" as="geometry" />
        </mxCell>
        <mxCell id="eOsLIqNuxfIvkPiwRa_p-126" value="Modello*" style="whiteSpace=wrap;html=1;align=center;" parent="1" vertex="1">
          <mxGeometry x="1510" y="710" width="100" height="40" as="geometry" />
        </mxCell>
        <mxCell id="eOsLIqNuxfIvkPiwRa_p-127" value="Portata*" style="whiteSpace=wrap;html=1;align=center;" parent="1" vertex="1">
          <mxGeometry x="1610" y="710" width="100" height="40" as="geometry" />
        </mxCell>
        <mxCell id="eOsLIqNuxfIvkPiwRa_p-128" value="Potenza*" style="whiteSpace=wrap;html=1;align=center;" parent="1" vertex="1">
          <mxGeometry x="1710" y="710" width="100" height="40" as="geometry" />
        </mxCell>
        <mxCell id="eOsLIqNuxfIvkPiwRa_p-129" value="TipoFiltro*" style="whiteSpace=wrap;html=1;align=center;" parent="1" vertex="1">
          <mxGeometry x="1810" y="710" width="100" height="40" as="geometry" />
        </mxCell>
        <mxCell id="eOsLIqNuxfIvkPiwRa_p-130" value="TipoTrattamento*" style="whiteSpace=wrap;html=1;align=center;" parent="1" vertex="1">
          <mxGeometry x="1910" y="710" width="100" height="40" as="geometry" />
        </mxCell>
        <mxCell id="eOsLIqNuxfIvkPiwRa_p-131" value="FONDO" style="text;html=1;strokeColor=none;fillColor=none;align=center;verticalAlign=middle;whiteSpace=wrap;rounded=0;" parent="1" vertex="1">
          <mxGeometry x="1020" y="880" width="60" height="30" as="geometry" />
        </mxCell>
        <mxCell id="eOsLIqNuxfIvkPiwRa_p-155" style="edgeStyle=orthogonalEdgeStyle;rounded=0;orthogonalLoop=1;jettySize=auto;html=1;exitX=0;exitY=0.5;exitDx=0;exitDy=0;entryX=0.75;entryY=1;entryDx=0;entryDy=0;fontSize=12;" parent="1" source="eOsLIqNuxfIvkPiwRa_p-132" target="eOsLIqNuxfIvkPiwRa_p-110" edge="1">
          <mxGeometry relative="1" as="geometry">
            <Array as="points">
              <mxPoint x="1005" y="930" />
            </Array>
          </mxGeometry>
        </mxCell>
        <mxCell id="eOsLIqNuxfIvkPiwRa_p-132" value="&lt;u&gt;Tipo&lt;/u&gt;" style="whiteSpace=wrap;html=1;align=center;" parent="1" vertex="1">
          <mxGeometry x="1020" y="910" width="100" height="40" as="geometry" />
        </mxCell>
        <mxCell id="eOsLIqNuxfIvkPiwRa_p-134" value="TipoFondo" style="whiteSpace=wrap;html=1;align=center;" parent="1" vertex="1">
          <mxGeometry x="1220" y="910" width="100" height="40" as="geometry" />
        </mxCell>
        <mxCell id="eOsLIqNuxfIvkPiwRa_p-139" value="ILLUMINAZIONE" style="text;html=1;strokeColor=none;fillColor=none;align=center;verticalAlign=middle;whiteSpace=wrap;rounded=0;" parent="1" vertex="1">
          <mxGeometry x="1020" y="790" width="100" height="30" as="geometry" />
        </mxCell>
        <mxCell id="eOsLIqNuxfIvkPiwRa_p-158" style="edgeStyle=orthogonalEdgeStyle;rounded=0;orthogonalLoop=1;jettySize=auto;html=1;exitX=0;exitY=0.5;exitDx=0;exitDy=0;entryX=0.75;entryY=1;entryDx=0;entryDy=0;fontSize=12;" parent="1" source="eOsLIqNuxfIvkPiwRa_p-140" target="eOsLIqNuxfIvkPiwRa_p-110" edge="1">
          <mxGeometry relative="1" as="geometry">
            <Array as="points">
              <mxPoint x="1005" y="840" />
            </Array>
          </mxGeometry>
        </mxCell>
        <mxCell id="eOsLIqNuxfIvkPiwRa_p-140" value="&lt;u&gt;Tipo&lt;/u&gt;" style="whiteSpace=wrap;html=1;align=center;" parent="1" vertex="1">
          <mxGeometry x="1020" y="820" width="100" height="40" as="geometry" />
        </mxCell>
        <mxCell id="eOsLIqNuxfIvkPiwRa_p-141" value="Tecnologia" style="whiteSpace=wrap;html=1;align=center;" parent="1" vertex="1">
          <mxGeometry x="1220" y="820" width="100" height="40" as="geometry" />
        </mxCell>
        <mxCell id="eOsLIqNuxfIvkPiwRa_p-142" value="LuminositÃ " style="whiteSpace=wrap;html=1;align=center;" parent="1" vertex="1">
          <mxGeometry x="1320" y="820" width="100" height="40" as="geometry" />
        </mxCell>
        <mxCell id="eOsLIqNuxfIvkPiwRa_p-143" value="TempColore" style="whiteSpace=wrap;html=1;align=center;" parent="1" vertex="1">
          <mxGeometry x="1420" y="820" width="100" height="40" as="geometry" />
        </mxCell>
        <mxCell id="eOsLIqNuxfIvkPiwRa_p-148" value="PIANTA" style="text;html=1;strokeColor=none;fillColor=none;align=center;verticalAlign=middle;whiteSpace=wrap;rounded=0;" parent="1" vertex="1">
          <mxGeometry x="1020" y="970" width="60" height="30" as="geometry" />
        </mxCell>
        <mxCell id="eOsLIqNuxfIvkPiwRa_p-154" style="edgeStyle=orthogonalEdgeStyle;rounded=0;orthogonalLoop=1;jettySize=auto;html=1;fontSize=12;entryX=0.75;entryY=1;entryDx=0;entryDy=0;" parent="1" source="eOsLIqNuxfIvkPiwRa_p-149" target="eOsLIqNuxfIvkPiwRa_p-110" edge="1">
          <mxGeometry relative="1" as="geometry">
            <mxPoint x="980" y="749.9999999999998" as="targetPoint" />
            <Array as="points">
              <mxPoint x="1005" y="1020" />
            </Array>
          </mxGeometry>
        </mxCell>
        <mxCell id="eOsLIqNuxfIvkPiwRa_p-149" value="&lt;u&gt;Tipo&lt;/u&gt;" style="whiteSpace=wrap;html=1;align=center;" parent="1" vertex="1">
          <mxGeometry x="1020" y="1000" width="100" height="40" as="geometry" />
        </mxCell>
        <mxCell id="eOsLIqNuxfIvkPiwRa_p-150" value="Piano" style="whiteSpace=wrap;html=1;align=center;" parent="1" vertex="1">
          <mxGeometry x="1220" y="1000" width="100" height="40" as="geometry" />
        </mxCell>
        <mxCell id="eOsLIqNuxfIvkPiwRa_p-151" value="LivelloLuce" style="whiteSpace=wrap;html=1;align=center;" parent="1" vertex="1">
          <mxGeometry x="1320" y="1000" width="100" height="40" as="geometry" />
        </mxCell>
        <mxCell id="eOsLIqNuxfIvkPiwRa_p-163" value="ALLESTIMENTO" style="text;html=1;strokeColor=none;fillColor=none;align=center;verticalAlign=middle;whiteSpace=wrap;rounded=0;" parent="1" vertex="1">
          <mxGeometry x="290" y="790" width="100" height="30" as="geometry" />
        </mxCell>
        <mxCell id="ch6qRePUIjWX55UvsxJJ-7" style="edgeStyle=orthogonalEdgeStyle;rounded=0;orthogonalLoop=1;jettySize=auto;html=1;entryX=0.25;entryY=1;entryDx=0;entryDy=0;" parent="1" source="eOsLIqNuxfIvkPiwRa_p-164" target="eOsLIqNuxfIvkPiwRa_p-121" edge="1">
          <mxGeometry relative="1" as="geometry">
            <Array as="points">
              <mxPoint x="440" y="780" />
              <mxPoint x="855" y="780" />
            </Array>
          </mxGeometry>
        </mxCell>
        <mxCell id="eOsLIqNuxfIvkPiwRa_p-164" value="&lt;u&gt;Decorazione&lt;/u&gt;" style="whiteSpace=wrap;html=1;align=center;" parent="1" vertex="1">
          <mxGeometry x="390" y="820" width="100" height="40" as="geometry" />
        </mxCell>
        <mxCell id="eOsLIqNuxfIvkPiwRa_p-168" style="edgeStyle=orthogonalEdgeStyle;rounded=0;orthogonalLoop=1;jettySize=auto;html=1;entryX=0;entryY=0.5;entryDx=0;entryDy=0;fontSize=12;" parent="1" source="eOsLIqNuxfIvkPiwRa_p-165" target="eOsLIqNuxfIvkPiwRa_p-98" edge="1">
          <mxGeometry relative="1" as="geometry">
            <Array as="points">
              <mxPoint x="270" y="840" />
              <mxPoint x="270" y="730" />
            </Array>
          </mxGeometry>
        </mxCell>
        <mxCell id="eOsLIqNuxfIvkPiwRa_p-165" value="&lt;u&gt;Acquario&lt;/u&gt;" style="whiteSpace=wrap;html=1;align=center;" parent="1" vertex="1">
          <mxGeometry x="290" y="820" width="100" height="40" as="geometry" />
        </mxCell>
        <mxCell id="eOsLIqNuxfIvkPiwRa_p-170" style="edgeStyle=orthogonalEdgeStyle;rounded=0;orthogonalLoop=1;jettySize=auto;html=1;entryX=0.25;entryY=1;entryDx=0;entryDy=0;fontSize=12;" parent="1" source="eOsLIqNuxfIvkPiwRa_p-166" target="eOsLIqNuxfIvkPiwRa_p-110" edge="1">
          <mxGeometry relative="1" as="geometry">
            <Array as="points">
              <mxPoint x="540" y="800" />
              <mxPoint x="955" y="800" />
            </Array>
          </mxGeometry>
        </mxCell>
        <mxCell id="eOsLIqNuxfIvkPiwRa_p-166" value="&lt;u&gt;Tipo&lt;/u&gt;" style="whiteSpace=wrap;html=1;align=center;" parent="1" vertex="1">
          <mxGeometry x="490" y="820" width="100" height="40" as="geometry" />
        </mxCell>
        <mxCell id="eOsLIqNuxfIvkPiwRa_p-167" value="QuantitÃ " style="whiteSpace=wrap;html=1;align=center;" parent="1" vertex="1">
          <mxGeometry x="590" y="820" width="100" height="40" as="geometry" />
        </mxCell>
        <mxCell id="ch6qRePUIjWX55UvsxJJ-6" style="edgeStyle=orthogonalEdgeStyle;rounded=0;orthogonalLoop=1;jettySize=auto;html=1;entryX=0.75;entryY=1;entryDx=0;entryDy=0;" parent="1" source="ch6qRePUIjWX55UvsxJJ-2" target="eOsLIqNuxfIvkPiwRa_p-121" edge="1">
          <mxGeometry relative="1" as="geometry">
            <Array as="points">
              <mxPoint x="1170" y="880" />
              <mxPoint x="905" y="880" />
            </Array>
          </mxGeometry>
        </mxCell>
        <mxCell id="ch6qRePUIjWX55UvsxJJ-2" value="&lt;u&gt;Decorazione&lt;/u&gt;" style="whiteSpace=wrap;html=1;align=center;" parent="1" vertex="1">
          <mxGeometry x="1120" y="820" width="100" height="40" as="geometry" />
        </mxCell>
        <mxCell id="ch6qRePUIjWX55UvsxJJ-8" style="edgeStyle=orthogonalEdgeStyle;rounded=0;orthogonalLoop=1;jettySize=auto;html=1;entryX=0.75;entryY=1;entryDx=0;entryDy=0;" parent="1" source="ch6qRePUIjWX55UvsxJJ-4" target="eOsLIqNuxfIvkPiwRa_p-121" edge="1">
          <mxGeometry relative="1" as="geometry">
            <Array as="points">
              <mxPoint x="1170" y="970" />
              <mxPoint x="905" y="970" />
            </Array>
          </mxGeometry>
        </mxCell>
        <mxCell id="ch6qRePUIjWX55UvsxJJ-4" value="&lt;u&gt;Decorazione&lt;/u&gt;" style="whiteSpace=wrap;html=1;align=center;" parent="1" vertex="1">
          <mxGeometry x="1120" y="910" width="100" height="40" as="geometry" />
        </mxCell>
        <mxCell id="ch6qRePUIjWX55UvsxJJ-10" style="edgeStyle=orthogonalEdgeStyle;rounded=0;orthogonalLoop=1;jettySize=auto;html=1;exitX=0.5;exitY=1;exitDx=0;exitDy=0;entryX=0.75;entryY=1;entryDx=0;entryDy=0;" parent="1" source="ch6qRePUIjWX55UvsxJJ-5" target="eOsLIqNuxfIvkPiwRa_p-121" edge="1">
          <mxGeometry relative="1" as="geometry" />
        </mxCell>
        <mxCell id="ch6qRePUIjWX55UvsxJJ-5" value="&lt;u&gt;Decorazione&lt;/u&gt;" style="whiteSpace=wrap;html=1;align=center;" parent="1" vertex="1">
          <mxGeometry x="1120" y="1000" width="100" height="40" as="geometry" />
        </mxCell>
      </root>
    </mxGraphModel>
  </diagram>
</mxfile>
